<?xml version="1.0" encoding="UTF-8"?>
<svg width="20px" height="4px" viewBox="0 0 20 4" version="1.1" xmlns="http://www.w3.org/2000/svg" xmlns:xlink="http://www.w3.org/1999/xlink">
    <title>3C11ADF8-2507-4443-81E7-4ECD1E2EFBA7</title>
    <g id="Desktops" stroke="none" stroke-width="1" fill="none" fill-rule="evenodd">
        <g id="Desktops---Default" transform="translate(-589.000000, -251.000000)" fill="#333333">
            <g id="Desktops" transform="translate(176.000000, 144.000000)">
                <g id="Desktop-1" transform="translate(0.000000, 65.000000)">
                    <g id="04---Forms/Buttons/Primary/Default" transform="translate(411.000000, 32.000000)">
                        <g id="02---Icons/UI-24/More">
                            <path d="M3.5,10.5 C4.32842712,10.5 5,11.1715729 5,12 C5,12.8284271 4.32842712,13.5 3.5,13.5 C2.67157288,13.5 2,12.8284271 2,12 C2,11.1715729 2.67157288,10.5 3.5,10.5 Z M12,10.5 C12.8284271,10.5 13.5,11.1715729 13.5,12 C13.5,12.8284271 12.8284271,13.5 12,13.5 C11.1715729,13.5 10.5,12.8284271 10.5,12 C10.5,11.1715729 11.1715729,10.5 12,10.5 Z M20.5,10.5 C21.3284271,10.5 22,11.1715729 22,12 C22,12.8284271 21.3284271,13.5 20.5,13.5 C19.6715729,13.5 19,12.8284271 19,12 C19,11.1715729 19.6715729,10.5 20.5,10.5 Z" id="More"></path>
                        </g>
                    </g>
                </g>
            </g>
        </g>
    </g>
</svg>